<svg xmlns="http://www.w3.org/2000/svg" viewBox="0 0 1024 1024">
  <path fill="#f5a800" d="M734.97 253.84l74.14-26.31c-1.4.31-2.82.74-4.22.74-8.12 0 58.82-51.78 58.82-51.78L796.99 23.37s-82.83 25.48-78.05 19.59l-62.2 32.26c4.7-2.12 9.47 20.93 11.65 25.96l49 127.1c2.16 5.02 21.95 23.53 17.58 25.56z"/>
  <path fill="#425cc7" d="M406.95 372.45l75.75-28c-1.22.33 245.51-114.97 245.51-114.97L664.88 93.07s-234.53 97.08-230.74 95.15l33.25-16.9-103.43 51.56z"/>
  <path fill="#425cc7" d="M121.24 368.2l34.82 77.82s179.72-49.28 177.15-48.35l-22.64 8.2 106.94-37.4-48.32-148.2-79.62 42.31c4.7-1.97-168.33 105.62-168.33 105.62z"/>
  <path fill="none" stroke="#000" stroke-linecap="round" stroke-linejoin="round" stroke-miterlimit="10" stroke-width="39.58" d="M24.05 459.07l41.31-17.09"/>
  <path fill="none" stroke="#000" stroke-linecap="round" stroke-linejoin="round" stroke-miterlimit="10" stroke-width="39.5817" d="M734.19 55.44l62.74-32.07 70.85 162.49-62.94 22.56"/>
  <path fill="none" stroke="#000" stroke-linecap="round" stroke-linejoin="round" stroke-miterlimit="10" stroke-width="39.58" d="M361.96 208.7l69.89 226.34"/>
  <circle cx="431.85" cy="435" r="39.6"/>
  <path fill="none" stroke="#000" stroke-linecap="round" stroke-linejoin="round" stroke-miterlimit="10" stroke-width="39.5817" d="M326.5 379.02l-174.75 63.33-30.48-70.46 175.94-91.23M443.07 205.85L664.92 93.04l61.75 143.09-249.17 89.45"/>
  <path fill="#425cc7" d="M1010.32 607.65c0-135-103.84-244.45-240.66-244.45 129.6 155.15 16.02 401.27-288.38 379.48-42.97-3.08-90.33-17.95-127.14-37.6v303.76a10.2 10.2 0 0010.2 10.2l645.98.22v-411.6"/>
  <path fill="#f5a800" d="M830.77 424.13c38.58 72.47 60.08 213.3-66.18 336.64 0 0-103.38 127.71-410.45 49.32V700.14s112.13 76.65 277.9 23.6c155.33-49.7 196.12-166.85 190.9-209.66-1.83-15.14-7.95-61-7.95-61s-8.46-30.44-5.5-38.38c3.43-9.19 18.52 4.24 21.28 9.43z"/>
  <path fill="#425cc7" d="M597.82 421.2c-16.9 19.26-15.94 47.68 2.12 63.54s46.4 13.1 63.3-6.14c0 0 20.91-23.08 30.48-89.62 0 0 2.53-13.32-9.88-9.7-64.75 18.08-86.02 41.93-86.02 41.93"/>
  <path fill="#f5a800" d="M693.2 384.18c-43.95-6.05-92.54 34.21-92.54 34.21-21.54 24.52-18.77 50.48-.72 66.34 0 0 10.08-54.94 93.26-100.55"/>
  <path fill="none" stroke="#000" stroke-linecap="round" stroke-linejoin="round" stroke-miterlimit="10" stroke-width="20.19" d="M364.1600000000001 806.6099999999999v202.56h646.16V604.06c0-148.27-96.7-240.63-240.65-240.66"/>
  <path fill="none" stroke="#000" stroke-linecap="round" stroke-linejoin="round" stroke-miterlimit="10" stroke-width="20.19" d="M364.16 701.72c36.82 19.35 74.15 32.24 117.12 35.27 304.4 21.46 417.98-220.85 288.39-373.59"/>
  <path fill="none" stroke="#000" stroke-linecap="round" stroke-linejoin="round" stroke-miterlimit="10" stroke-width="20.19" d="M364.16 806.61c48.8 27.14 113.59 34.04 192 30.17 353.3-32.9 379.64-368.5 213.5-473.38"/>
  <path fill="none" stroke="#000" stroke-linecap="round" stroke-linejoin="round" stroke-miterlimit="10" stroke-width="19.18" d="M597.82 421.2c-16.9 19.26-15.94 47.68 2.12 63.54s46.4 13.1 63.3-6.14c0 0 20.91-23.08 30.48-89.62 0 0 2.53-13.32-9.88-9.7-64.75 18.08-86.02 41.93-86.02 41.93"/>
  <path fill="none" stroke="#000" stroke-linecap="round" stroke-linejoin="round" stroke-miterlimit="10" stroke-width="20.19" d="M405.81 961.91c34.57 0 34.57-20.75 69.14-20.75 34.54 0 34.54 20.75 69.1 20.75 34.57 0 34.57-20.75 69.15-20.75 34.6 0 34.6 20.75 69.2 20.75s34.6-20.75 69.2-20.75"/>
</svg>
